<svg width="30" height="30" viewBox="0 0 30 30" fill="none" xmlns="http://www.w3.org/2000/svg">
<g clip-path="url(#clip0_364_425)">
<path d="M29.9997 13.7777C29.8189 10.9112 28.7861 8.15923 27.0287 5.86103C25.2712 3.56282 22.866 1.81885 20.1093 0.844123C17.3527 -0.130606 14.3653 -0.293487 11.5154 0.375562C8.66548 1.04461 6.07763 2.51634 4.07089 4.60931C2.06415 6.70229 0.726253 9.325 0.222129 12.1541C-0.281994 14.9833 0.0696975 17.8951 1.23385 20.5308C2.398 23.1664 4.32371 25.4105 6.77359 26.9866C9.22346 28.5626 12.0904 29.4016 15.021 29.4001H23.7497C25.4068 29.3985 26.9956 28.7527 28.1673 27.6043C29.339 26.456 29.998 24.8991 29.9997 23.2751V13.7777ZM27.4997 23.2751C27.4997 24.2498 27.1046 25.1845 26.4014 25.8737C25.6981 26.5629 24.7443 26.9501 23.7497 26.9501H15.021C13.2571 26.9493 11.5133 26.5842 9.90307 25.8786C8.29289 25.173 6.85254 24.1427 5.67595 22.8549C4.49367 21.5678 3.60587 20.0478 3.07207 18.3969C2.53827 16.746 2.37083 15.0023 2.58095 13.2828C2.91275 10.5706 4.15619 8.04368 6.11525 6.10051C8.07432 4.15734 10.6376 2.90839 13.401 2.55055C13.94 2.48434 14.4827 2.4508 15.026 2.4501C17.939 2.44232 20.762 3.43979 22.9997 5.2676C24.3066 6.33206 25.3793 7.64552 26.1529 9.12835C26.9264 10.6112 27.3846 12.2325 27.4997 13.8941V23.2751Z" fill="#591E9C"/>
<path d="M9.99976 11.0247H14.9998C15.3313 11.0247 15.6492 10.8956 15.8836 10.6659C16.1181 10.4362 16.2498 10.1246 16.2498 9.7997C16.2498 9.47482 16.1181 9.16323 15.8836 8.9335C15.6492 8.70377 15.3313 8.57471 14.9998 8.57471H9.99976C9.66824 8.57471 9.35029 8.70377 9.11587 8.9335C8.88145 9.16323 8.74976 9.47482 8.74976 9.7997C8.74976 10.1246 8.88145 10.4362 9.11587 10.6659C9.35029 10.8956 9.66824 11.0247 9.99976 11.0247Z" fill="#591E9C"/>
<path d="M19.9998 13.4751H9.99976C9.66824 13.4751 9.35029 13.6042 9.11587 13.8339C8.88145 14.0636 8.74976 14.3752 8.74976 14.7001C8.74976 15.025 8.88145 15.3366 9.11587 15.5663C9.35029 15.796 9.66824 15.9251 9.99976 15.9251H19.9998C20.3313 15.9251 20.6492 15.796 20.8836 15.5663C21.1181 15.3366 21.2498 15.025 21.2498 14.7001C21.2498 14.3752 21.1181 14.0636 20.8836 13.8339C20.6492 13.6042 20.3313 13.4751 19.9998 13.4751Z" fill="#591E9C"/>
<path d="M19.9998 18.375H9.99976C9.66824 18.375 9.35029 18.5041 9.11587 18.7338C8.88145 18.9635 8.74976 19.2751 8.74976 19.6C8.74976 19.9249 8.88145 20.2365 9.11587 20.4662C9.35029 20.696 9.66824 20.825 9.99976 20.825H19.9998C20.3313 20.825 20.6492 20.696 20.8836 20.4662C21.1181 20.2365 21.2498 19.9249 21.2498 19.6C21.2498 19.2751 21.1181 18.9635 20.8836 18.7338C20.6492 18.5041 20.3313 18.375 19.9998 18.375Z" fill="#591E9C"/>
</g>
<defs>
<clipPath id="clip0_364_425">
<rect width="30" height="29.4" fill="white"/>
</clipPath>
</defs>
</svg>
