<svg width="1920" height="1453" viewBox="0 0 1920 1453" fill="none" xmlns="http://www.w3.org/2000/svg">
<path d="M2411 279.5C2411 -4.00024 1579.5 -77 1411 141.5C1272.85 320.648 1316 992.225 1181 1178.72C1097.5 1327.72 979.8 1440.8 641 1452C302.2 1463.2 14.1667 1107.67 -110 1103" stroke="url(#paint0_linear_364_436)"/>
<path d="M2446.5 61.2387C2148.5 -83.2613 1724.5 42.7384 1724.5 326.738C1724.5 482.798 1729 893.741 1445 1039.24C1275.83 1125.91 856.8 1143.24 514 1039.24C171.2 935.239 23.3333 727.072 -3 675.738" stroke="url(#paint1_linear_364_436)"/>
<path d="M2412.69 265.935C2398.5 -10.9468 1586.4 -74.4704 1425.93 147.149C1294.35 325.197 1335.67 984.363 1193.57 1168.91C1105.99 1314.94 973.943 1423.46 634.952 1429.17C295.962 1434.89 14.6031 1086.37 -104.905 1079.48" stroke="url(#paint2_linear_364_436)"/>
<path d="M2414.38 252.638C2386 -17.6241 1593.31 -71.6716 1440.86 153.067C1315.86 330.016 1355.33 976.77 1206.14 1159.37C1114.48 1302.43 968.086 1406.39 628.905 1406.61C289.724 1406.84 15.0396 1065.34 -99.8096 1056.23" stroke="url(#paint3_linear_364_436)"/>
<path d="M2416.07 239.621C2373.5 -24.0221 1600.21 -68.5934 1455.79 159.264C1337.37 335.113 1375 969.457 1218.71 1150.1C1122.98 1290.19 962.228 1389.59 622.857 1384.34C283.486 1379.08 15.4761 1044.6 -94.7144 1033.26" stroke="url(#paint4_linear_364_436)"/>
<path d="M2417.76 226.892C2361 -30.1326 1607.12 -65.2277 1470.71 165.749C1358.88 340.499 1394.67 962.431 1231.29 1141.12C1131.47 1278.25 956.371 1373.09 616.809 1362.34C277.248 1351.6 15.9126 1024.14 -89.6191 1010.58" stroke="url(#paint5_linear_364_436)"/>
<path d="M2419.45 214.459C2348.5 -35.946 1614.02 -61.5649 1485.64 172.531C1380.38 346.181 1414.33 955.702 1243.86 1132.44C1139.96 1266.6 950.514 1356.88 610.762 1340.65C271.009 1324.42 16.3491 1003.98 -84.5239 988.198" stroke="url(#paint6_linear_364_436)"/>
<path d="M2421.14 202.332C2336 -41.4545 1620.93 -57.5972 1500.57 179.617C1401.89 352.168 1434 949.278 1256.43 1124.06C1148.45 1255.25 944.657 1340.97 604.714 1319.26C264.771 1297.55 16.7856 984.117 -79.4287 966.117" stroke="url(#paint7_linear_364_436)"/>
<path d="M2422.83 190.518C2323.5 -46.6489 1627.83 -53.3155 1515.5 187.018C1423.4 358.47 1453.67 943.168 1269 1116C1156.94 1244.22 938.8 1325.38 598.667 1298.18C258.533 1270.98 17.2221 964.574 -74.3335 944.352" stroke="url(#paint8_linear_364_436)"/>
<path d="M2424.52 179.025C2311 -51.5225 1634.74 -48.713 1530.43 194.74C1444.91 365.092 1473.33 937.38 1281.57 1108.26C1165.44 1233.51 932.943 1310.12 592.619 1277.43C252.295 1244.74 17.6585 945.351 -69.2383 922.906" stroke="url(#paint9_linear_364_436)"/>
<path d="M2426.21 167.862C2298.5 -56.067 1641.64 -43.7812 1545.36 202.79C1466.41 372.043 1493 931.92 1294.14 1100.85C1173.93 1223.13 927.086 1295.18 586.571 1257C246.057 1218.83 18.095 926.457 -64.1431 901.791" stroke="url(#paint10_linear_364_436)"/>
<path d="M2427.9 157.033C2286 -60.2764 1648.55 -38.5145 1560.29 211.176C1487.92 379.33 1512.67 926.795 1306.71 1093.77C1182.42 1213.09 921.228 1280.57 580.524 1236.91C239.819 1193.26 18.5315 907.899 -59.0479 881.01" stroke="url(#paint11_linear_364_436)"/>
<path d="M2429.6 146.547C2273.5 -64.1438 1655.45 -32.9058 1575.21 219.904C1509.43 386.958 1532.33 922.012 1319.29 1087.03C1190.91 1203.38 915.372 1266.31 574.476 1217.17C233.581 1168.02 18.9685 889.682 -53.9521 860.571" stroke="url(#paint12_linear_364_436)"/>
<path d="M2431.29 136.407C2261 -67.6647 1662.36 -26.9505 1590.14 228.978C1530.93 394.933 1552 917.576 1331.86 1080.65C1199.4 1194.03 909.514 1252.39 568.429 1197.76C227.343 1143.14 19.405 871.812 -48.8569 840.478" stroke="url(#paint13_linear_364_436)"/>
<path d="M2432.98 126.619C2248.5 -70.8336 1669.26 -20.6432 1605.07 238.405C1552.44 403.26 1571.67 913.492 1344.43 1074.61C1207.9 1185.02 903.657 1238.83 562.381 1178.71C221.105 1118.6 19.8415 854.294 -43.7617 820.738" stroke="url(#paint14_linear_364_436)"/>
<path d="M2434.67 117.186C2236 -73.6475 1676.17 -13.981 1620 248.186C1573.95 411.942 1591.33 909.762 1357 1068.93C1216.39 1176.37 897.8 1225.62 556.333 1160.02C214.867 1094.42 20.2779 837.13 -38.6665 801.353" stroke="url(#paint15_linear_364_436)"/>
<path d="M2436.36 108.112C2223.5 -76.1027 1683.07 -6.95995 1634.93 258.326C1595.46 420.982 1611 906.392 1369.57 1063.6C1224.88 1168.08 891.943 1212.77 550.286 1141.68C208.629 1070.6 20.7144 820.326 -33.5713 782.326" stroke="url(#paint16_linear_364_436)"/>
<path d="M2438.05 99.3974C2211 -78.198 1689.98 0.420898 1649.86 268.826C1616.96 430.383 1630.67 903.381 1382.14 1058.64C1233.37 1160.15 886.086 1200.28 544.238 1123.71C202.391 1047.14 21.1509 803.881 -28.4761 763.659" stroke="url(#paint17_linear_364_436)"/>
<path d="M2439.74 91.045C2198.5 -79.9313 1696.88 8.16373 1664.79 279.688C1638.47 440.145 1650.33 900.733 1394.71 1054.04C1241.87 1152.58 880.229 1188.15 538.191 1106.09C196.152 1024.04 21.5874 787.799 -23.3809 745.354" stroke="url(#paint18_linear_364_436)"/>
<path d="M2441.43 83.0536C2186 -81.3036 1703.79 16.2676 1679.71 290.911C1659.98 450.269 1670 898.445 1407.29 1049.8C1250.36 1145.37 874.371 1176.38 532.143 1088.84C189.914 1001.3 22.0239 772.077 -18.2856 727.411" stroke="url(#paint19_linear_364_436)"/>
<path d="M2443.12 75.4237C2173.5 -82.3144 1710.69 24.733 1694.64 302.495C1681.49 460.754 1689.67 896.519 1419.86 1045.92C1258.85 1138.52 868.514 1164.98 526.095 1071.95C183.676 978.919 22.4604 756.717 -13.1904 709.828" stroke="url(#paint20_linear_364_436)"/>
<path d="M2444.81 68.1525C2161 -82.9665 1717.6 33.557 1709.57 314.438C1702.99 471.597 1709.33 894.951 1432.43 1042.4C1267.34 1132.04 862.657 1153.93 520.048 1055.41C177.438 956.9 22.8968 741.716 -8.09521 692.605" stroke="url(#paint21_linear_364_436)"/>
<defs>
<linearGradient id="paint0_linear_364_436" x1="1150.5" y1="14.0273" x2="1150.5" y2="1452.26" gradientUnits="userSpaceOnUse">
<stop stop-color="#B24674"/>
<stop offset="0.182292" stop-color="#810362"/>
<stop offset="0.364583" stop-color="#1B069F"/>
<stop offset="0.567708" stop-color="#2A0D7B"/>
<stop offset="0.744792" stop-color="#940059"/>
<stop offset="0.921875" stop-color="#4B0D7B"/>
</linearGradient>
<linearGradient id="paint1_linear_364_436" x1="1221.75" y1="1" x2="1221.75" y2="1110.89" gradientUnits="userSpaceOnUse">
<stop stop-color="#B24674"/>
<stop offset="0.182292" stop-color="#810362"/>
<stop offset="0.364583" stop-color="#1B069F"/>
<stop offset="0.567708" stop-color="#2A0D7B"/>
<stop offset="0.744792" stop-color="#940059"/>
<stop offset="0.921875" stop-color="#4B0D7B"/>
</linearGradient>
<linearGradient id="paint2_linear_364_436" x1="1153.89" y1="13.4072" x2="1153.89" y2="1429.24" gradientUnits="userSpaceOnUse">
<stop stop-color="#B24674"/>
<stop offset="0.182292" stop-color="#810362"/>
<stop offset="0.364583" stop-color="#1B069F"/>
<stop offset="0.567708" stop-color="#2A0D7B"/>
<stop offset="0.744792" stop-color="#940059"/>
<stop offset="0.921875" stop-color="#4B0D7B"/>
</linearGradient>
<linearGradient id="paint3_linear_364_436" x1="1157.29" y1="12.7866" x2="1157.29" y2="1406.61" gradientUnits="userSpaceOnUse">
<stop stop-color="#B24674"/>
<stop offset="0.182292" stop-color="#810362"/>
<stop offset="0.364583" stop-color="#1B069F"/>
<stop offset="0.567708" stop-color="#2A0D7B"/>
<stop offset="0.744792" stop-color="#940059"/>
<stop offset="0.921875" stop-color="#4B0D7B"/>
</linearGradient>
<linearGradient id="paint4_linear_364_436" x1="1160.68" y1="12.1665" x2="1160.68" y2="1384.53" gradientUnits="userSpaceOnUse">
<stop stop-color="#B24674"/>
<stop offset="0.182292" stop-color="#810362"/>
<stop offset="0.364583" stop-color="#1B069F"/>
<stop offset="0.567708" stop-color="#2A0D7B"/>
<stop offset="0.744792" stop-color="#940059"/>
<stop offset="0.921875" stop-color="#4B0D7B"/>
</linearGradient>
<linearGradient id="paint5_linear_364_436" x1="1164.07" y1="11.5459" x2="1164.07" y2="1363.17" gradientUnits="userSpaceOnUse">
<stop stop-color="#B24674"/>
<stop offset="0.182292" stop-color="#810362"/>
<stop offset="0.364583" stop-color="#1B069F"/>
<stop offset="0.567708" stop-color="#2A0D7B"/>
<stop offset="0.744792" stop-color="#940059"/>
<stop offset="0.921875" stop-color="#4B0D7B"/>
</linearGradient>
<linearGradient id="paint6_linear_364_436" x1="1167.46" y1="10.9258" x2="1167.46" y2="1342.53" gradientUnits="userSpaceOnUse">
<stop stop-color="#B24674"/>
<stop offset="0.182292" stop-color="#810362"/>
<stop offset="0.364583" stop-color="#1B069F"/>
<stop offset="0.567708" stop-color="#2A0D7B"/>
<stop offset="0.744792" stop-color="#940059"/>
<stop offset="0.921875" stop-color="#4B0D7B"/>
</linearGradient>
<linearGradient id="paint7_linear_364_436" x1="1170.86" y1="10.3052" x2="1170.86" y2="1322.62" gradientUnits="userSpaceOnUse">
<stop stop-color="#B24674"/>
<stop offset="0.182292" stop-color="#810362"/>
<stop offset="0.364583" stop-color="#1B069F"/>
<stop offset="0.567708" stop-color="#2A0D7B"/>
<stop offset="0.744792" stop-color="#940059"/>
<stop offset="0.921875" stop-color="#4B0D7B"/>
</linearGradient>
<linearGradient id="paint8_linear_364_436" x1="1174.25" y1="9.68506" x2="1174.25" y2="1303.43" gradientUnits="userSpaceOnUse">
<stop stop-color="#B24674"/>
<stop offset="0.182292" stop-color="#810362"/>
<stop offset="0.364583" stop-color="#1B069F"/>
<stop offset="0.567708" stop-color="#2A0D7B"/>
<stop offset="0.744792" stop-color="#940059"/>
<stop offset="0.921875" stop-color="#4B0D7B"/>
</linearGradient>
<linearGradient id="paint9_linear_364_436" x1="1177.64" y1="9.06445" x2="1177.64" y2="1284.98" gradientUnits="userSpaceOnUse">
<stop stop-color="#B24674"/>
<stop offset="0.182292" stop-color="#810362"/>
<stop offset="0.364583" stop-color="#1B069F"/>
<stop offset="0.567708" stop-color="#2A0D7B"/>
<stop offset="0.744792" stop-color="#940059"/>
<stop offset="0.921875" stop-color="#4B0D7B"/>
</linearGradient>
<linearGradient id="paint10_linear_364_436" x1="1181.04" y1="8.44434" x2="1181.04" y2="1267.26" gradientUnits="userSpaceOnUse">
<stop stop-color="#B24674"/>
<stop offset="0.182292" stop-color="#810362"/>
<stop offset="0.364583" stop-color="#1B069F"/>
<stop offset="0.567708" stop-color="#2A0D7B"/>
<stop offset="0.744792" stop-color="#940059"/>
<stop offset="0.921875" stop-color="#4B0D7B"/>
</linearGradient>
<linearGradient id="paint11_linear_364_436" x1="1184.43" y1="7.82373" x2="1184.43" y2="1250.26" gradientUnits="userSpaceOnUse">
<stop stop-color="#B24674"/>
<stop offset="0.182292" stop-color="#810362"/>
<stop offset="0.364583" stop-color="#1B069F"/>
<stop offset="0.567708" stop-color="#2A0D7B"/>
<stop offset="0.744792" stop-color="#940059"/>
<stop offset="0.921875" stop-color="#4B0D7B"/>
</linearGradient>
<linearGradient id="paint12_linear_364_436" x1="1187.82" y1="7.20361" x2="1187.82" y2="1234.01" gradientUnits="userSpaceOnUse">
<stop stop-color="#B24674"/>
<stop offset="0.182292" stop-color="#810362"/>
<stop offset="0.364583" stop-color="#1B069F"/>
<stop offset="0.567708" stop-color="#2A0D7B"/>
<stop offset="0.744792" stop-color="#940059"/>
<stop offset="0.921875" stop-color="#4B0D7B"/>
</linearGradient>
<linearGradient id="paint13_linear_364_436" x1="1191.21" y1="6.58301" x2="1191.21" y2="1218.48" gradientUnits="userSpaceOnUse">
<stop stop-color="#B24674"/>
<stop offset="0.182292" stop-color="#810362"/>
<stop offset="0.364583" stop-color="#1B069F"/>
<stop offset="0.567708" stop-color="#2A0D7B"/>
<stop offset="0.744792" stop-color="#940059"/>
<stop offset="0.921875" stop-color="#4B0D7B"/>
</linearGradient>
<linearGradient id="paint14_linear_364_436" x1="1194.61" y1="5.96289" x2="1194.61" y2="1203.68" gradientUnits="userSpaceOnUse">
<stop stop-color="#B24674"/>
<stop offset="0.182292" stop-color="#810362"/>
<stop offset="0.364583" stop-color="#1B069F"/>
<stop offset="0.567708" stop-color="#2A0D7B"/>
<stop offset="0.744792" stop-color="#940059"/>
<stop offset="0.921875" stop-color="#4B0D7B"/>
</linearGradient>
<linearGradient id="paint15_linear_364_436" x1="1198" y1="5.34229" x2="1198" y2="1189.6" gradientUnits="userSpaceOnUse">
<stop stop-color="#B24674"/>
<stop offset="0.182292" stop-color="#810362"/>
<stop offset="0.364583" stop-color="#1B069F"/>
<stop offset="0.567708" stop-color="#2A0D7B"/>
<stop offset="0.744792" stop-color="#940059"/>
<stop offset="0.921875" stop-color="#4B0D7B"/>
</linearGradient>
<linearGradient id="paint16_linear_364_436" x1="1201.39" y1="4.72217" x2="1201.39" y2="1176.25" gradientUnits="userSpaceOnUse">
<stop stop-color="#B24674"/>
<stop offset="0.182292" stop-color="#810362"/>
<stop offset="0.364583" stop-color="#1B069F"/>
<stop offset="0.567708" stop-color="#2A0D7B"/>
<stop offset="0.744792" stop-color="#940059"/>
<stop offset="0.921875" stop-color="#4B0D7B"/>
</linearGradient>
<linearGradient id="paint17_linear_364_436" x1="1204.79" y1="4.10156" x2="1204.79" y2="1163.61" gradientUnits="userSpaceOnUse">
<stop stop-color="#B24674"/>
<stop offset="0.182292" stop-color="#810362"/>
<stop offset="0.364583" stop-color="#1B069F"/>
<stop offset="0.567708" stop-color="#2A0D7B"/>
<stop offset="0.744792" stop-color="#940059"/>
<stop offset="0.921875" stop-color="#4B0D7B"/>
</linearGradient>
<linearGradient id="paint18_linear_364_436" x1="1208.18" y1="3.48145" x2="1208.18" y2="1151.68" gradientUnits="userSpaceOnUse">
<stop stop-color="#B24674"/>
<stop offset="0.182292" stop-color="#810362"/>
<stop offset="0.364583" stop-color="#1B069F"/>
<stop offset="0.567708" stop-color="#2A0D7B"/>
<stop offset="0.744792" stop-color="#940059"/>
<stop offset="0.921875" stop-color="#4B0D7B"/>
</linearGradient>
<linearGradient id="paint19_linear_364_436" x1="1211.57" y1="2.86084" x2="1211.57" y2="1140.45" gradientUnits="userSpaceOnUse">
<stop stop-color="#B24674"/>
<stop offset="0.182292" stop-color="#810362"/>
<stop offset="0.364583" stop-color="#1B069F"/>
<stop offset="0.567708" stop-color="#2A0D7B"/>
<stop offset="0.744792" stop-color="#940059"/>
<stop offset="0.921875" stop-color="#4B0D7B"/>
</linearGradient>
<linearGradient id="paint20_linear_364_436" x1="1214.96" y1="2.24072" x2="1214.96" y2="1129.92" gradientUnits="userSpaceOnUse">
<stop stop-color="#B24674"/>
<stop offset="0.182292" stop-color="#810362"/>
<stop offset="0.364583" stop-color="#1B069F"/>
<stop offset="0.567708" stop-color="#2A0D7B"/>
<stop offset="0.744792" stop-color="#940059"/>
<stop offset="0.921875" stop-color="#4B0D7B"/>
</linearGradient>
<linearGradient id="paint21_linear_364_436" x1="1218.36" y1="1.62012" x2="1218.36" y2="1120.07" gradientUnits="userSpaceOnUse">
<stop stop-color="#B24674"/>
<stop offset="0.182292" stop-color="#810362"/>
<stop offset="0.364583" stop-color="#1B069F"/>
<stop offset="0.567708" stop-color="#2A0D7B"/>
<stop offset="0.744792" stop-color="#940059"/>
<stop offset="0.921875" stop-color="#4B0D7B"/>
</linearGradient>
</defs>
</svg>
