<svg width="34" height="28" viewBox="0 0 34 28" fill="none" xmlns="http://www.w3.org/2000/svg">
<path fill-rule="evenodd" clip-rule="evenodd" d="M31.0114 0C32.5684 0 33.8306 1.34405 33.8306 3.00202V24.0162C33.8306 25.6742 32.5684 27.0182 31.0114 27.0182H2.81922C1.26221 27.0182 0 25.6742 0 24.0162V3.00202C0 1.34405 1.26221 0 2.81922 0H31.0114ZM12.1245 15.9018L3.82081 24.641H29.7417L21.5262 15.991L16.9153 19.3904L12.1245 15.9018ZM31.5322 8.63155L23.4193 14.6048L31.5322 23.135V8.63155ZM2.30443 8.74167V22.8555L10.2296 14.5138L2.30443 8.74167ZM30.9848 2.37996H2.87224C2.69538 2.37996 2.55399 2.43142 2.44805 2.53434C2.34212 2.63726 2.29444 2.77045 2.30502 2.9339V5.85128L16.9153 16.4916L31.537 5.7468V3.06058C31.5395 2.81924 31.4874 2.64383 31.3807 2.53434C31.2741 2.42486 31.1421 2.37339 30.9848 2.37996Z" fill="#701F88"/>
</svg>
