<svg width="654" height="461" viewBox="0 0 654 461" fill="none" xmlns="http://www.w3.org/2000/svg">
<g style="mix-blend-mode:multiply" opacity="0.5" filter="url(#filter0_f_402_30)">
<path fill-rule="evenodd" clip-rule="evenodd" d="M81.5395 396.579C81.7118 396.579 81.884 396.579 82.056 396.579V396.579H572.207H572.724V396.579C606.241 396.645 633.325 403.076 633.325 411H572.724H511.089H142.658H82.056H20.4213C20.4213 403.035 47.7848 396.579 81.5395 396.579Z" fill="url(#paint0_linear_402_30)" style="mix-blend-mode:multiply"/>
</g>
<g style="mix-blend-mode:multiply" filter="url(#filter1_f_402_30)">
<path d="M40.9716 398.381C40.9716 397.784 41.4558 397.3 42.0532 397.3H604.483C605.08 397.3 605.564 397.784 605.564 398.381V398.381C605.564 398.979 605.08 399.463 604.483 399.463H42.0532C41.4558 399.463 40.9716 398.979 40.9716 398.381V398.381Z" fill="#272737"/>
</g>
<path opacity="0.7" d="M66.2088 45.4212C66.2088 37.4566 72.6654 31 80.6301 31H573.117C581.081 31 587.538 37.4566 587.538 45.4213V373.505C587.538 381.469 581.081 387.926 573.117 387.926H80.6301C72.6654 387.926 66.2088 381.469 66.2088 373.505V45.4212Z" fill="#F6F6F6"/>
<path d="M67.2904 45.7818C67.2904 38.2154 73.4242 32.0816 80.9906 32.0816H572.756C580.322 32.0816 586.456 38.2154 586.456 45.7818V373.144C586.456 380.711 580.322 386.844 572.756 386.844H80.9906C73.4242 386.844 67.2904 380.711 67.2904 373.144V45.7818Z" fill="white"/>
<path d="M67.2904 45.7818C67.2904 38.2154 73.4242 32.0816 80.9906 32.0816H572.756C580.322 32.0816 586.456 38.2154 586.456 45.7818V373.144C586.456 380.711 580.322 386.844 572.756 386.844H80.9906C73.4242 386.844 67.2904 380.711 67.2904 373.144V45.7818Z" fill="url(#paint1_linear_402_30)" fill-opacity="0.2"/>
<path d="M69.8141 368.457H584.293V372.063C584.293 380.226 577.675 386.844 569.511 386.844H83.8748C76.1093 386.844 69.8141 380.549 69.8141 372.784V368.457Z" fill="#F2F2F2"/>
<path fill-rule="evenodd" clip-rule="evenodd" d="M572.396 34.2448H81.3512C74.9794 34.2448 69.8141 39.4101 69.8141 45.7818V372.423C69.8141 378.795 74.9794 383.96 81.3512 383.96H572.396C578.767 383.96 583.933 378.795 583.933 372.423V45.7818C583.933 39.4101 578.767 34.2448 572.396 34.2448ZM81.3512 33.5237C74.5812 33.5237 69.0931 39.0118 69.0931 45.7818V372.423C69.0931 379.193 74.5812 384.681 81.3512 384.681H572.396C579.165 384.681 584.654 379.193 584.654 372.423V45.7818C584.654 39.0118 579.165 33.5237 572.396 33.5237H81.3512Z" fill="#F2F2F2"/>
<path d="M75.5826 46.5028H577.804V360.886H75.5826V46.5028Z" fill="black"/>
<path style="mix-blend-mode:screen" d="M75.5826 46.5028H577.804V360.886H75.5826V46.5028Z" fill="url(#paint2_linear_402_30)"/>
<path fill-rule="evenodd" clip-rule="evenodd" d="M584.293 397.66C619.553 397.644 648.107 392.969 648.107 387.205H520.118C520.118 387.326 520.131 387.446 520.156 387.565H133.989H70.5352H6C6 393.34 34.6513 398.021 69.9944 398.021C70.1748 398.021 70.3551 398.021 70.5352 398.02V398.021H584.293V397.66Z" fill="#D8D8D8"/>
<path fill-rule="evenodd" clip-rule="evenodd" d="M584.293 397.66C619.553 397.644 648.107 392.969 648.107 387.205H520.118C520.118 387.326 520.131 387.446 520.156 387.565H133.989H70.5352H6C6 393.34 34.6513 398.021 69.9944 398.021C70.1748 398.021 70.3551 398.021 70.5352 398.02V398.021H584.293V397.66Z" fill="url(#paint3_linear_402_30)" fill-opacity="0.5" style="mix-blend-mode:multiply"/>
<path d="M6 378.192H647.747V387.565C647.747 388.362 647.101 389.008 646.304 389.008H7.44214C6.64568 389.008 6 388.362 6 387.565V378.192Z" fill="white"/>
<path d="M6 378.192H647.747V387.565C647.747 388.362 647.101 389.008 646.304 389.008H7.44214C6.64568 389.008 6 388.362 6 387.565V378.192Z" fill="url(#paint4_linear_402_30)" fill-opacity="0.5"/>
<path opacity="0.5" d="M282.528 378.192H371.219V378.192C371.219 381.975 368.152 385.042 364.369 385.042H289.378C285.595 385.042 282.528 381.975 282.528 378.192V378.192Z" fill="url(#paint5_linear_402_30)"/>
<path d="M310 102.5C310 101.395 310.895 100.5 312 100.5H313.5C314.605 100.5 315.5 101.395 315.5 102.5V142C315.5 143.105 314.605 144 313.5 144H312C310.895 144 310 143.105 310 142V102.5Z" fill="white"/>
<path d="M99.5 106.5C99.5 105.395 100.395 104.5 101.5 104.5H103C104.105 104.5 105 105.395 105 106.5V120C105 121.105 104.105 122 103 122H101.5C100.395 122 99.5 121.105 99.5 120V106.5Z" fill="white"/>
<path d="M99.5 83C99.5 81.8954 100.395 81 101.5 81H103C104.105 81 105 81.8954 105 83V96.5C105 97.6046 104.105 98.5 103 98.5H101.5C100.395 98.5 99.5 97.6046 99.5 96.5V83Z" fill="white"/>
<g style="mix-blend-mode:multiply" opacity="0.3" filter="url(#filter2_f_402_30)">
<path fill-rule="evenodd" clip-rule="evenodd" d="M114.985 423.5C115.05 423.5 115.115 423.5 115.179 423.501V423.5H299.515H299.709V423.501C312.314 423.587 322.5 432.06 322.5 442.5H299.709H276.529H137.971H115.179H92C92 432.007 102.291 423.5 114.985 423.5Z" fill="url(#paint6_linear_402_30)" style="mix-blend-mode:multiply"/>
</g>
<g style="mix-blend-mode:multiply" filter="url(#filter3_f_402_30)">
<path d="M113 429.5C113 428.948 113.154 428.5 113.345 428.5H292.655C292.846 428.5 293 428.948 293 429.5V429.5C293 430.052 292.846 430.5 292.655 430.5H113.345C113.154 430.5 113 430.052 113 429.5V429.5Z" fill="#272737"/>
</g>
<path d="M101 31C101 13.8792 114.879 0 132 0H282.5C299.621 0 313.5 13.8792 313.5 31V398.5C313.5 415.621 299.621 429.5 282.5 429.5H132C114.879 429.5 101 415.621 101 398.5V31Z" fill="#F2F2F2"/>
<path d="M113.5 34C113.5 21.5736 123.574 11.5 136 11.5H278.5C290.926 11.5 301 21.5736 301 34V395C301 407.426 290.926 417.5 278.5 417.5H136C123.574 417.5 113.5 407.426 113.5 395V34Z" fill="black"/>
<path fill-rule="evenodd" clip-rule="evenodd" d="M278.5 12H136C123.85 12 114 21.8497 114 34V395C114 407.15 123.85 417 136 417H278.5C290.65 417 300.5 407.15 300.5 395V34C300.5 21.8497 290.65 12 278.5 12ZM136 11.5C123.574 11.5 113.5 21.5736 113.5 34V395C113.5 407.426 123.574 417.5 136 417.5H278.5C290.926 417.5 301 407.426 301 395V34C301 21.5736 290.926 11.5 278.5 11.5H136Z" fill="#F2F2F2"/>
<g style="mix-blend-mode:screen">
<path d="M113.5 34C113.5 21.5736 123.574 11.5 136 11.5H278.5C290.926 11.5 301 21.5736 301 34V395C301 407.426 290.926 417.5 278.5 417.5H136C123.574 417.5 113.5 407.426 113.5 395V34Z" fill="url(#paint7_linear_402_30)" fill-opacity="0.5"/>
</g>
<g filter="url(#filter4_d_402_30)">
<path fill-rule="evenodd" clip-rule="evenodd" d="M107 33.5C107 17.7599 119.76 5 135.5 5H279.5C295.24 5 308 17.7599 308 33.5V395C308 410.74 295.24 423.5 279.5 423.5H135.5C119.76 423.5 107 410.74 107 395V33.5ZM113.5 34C113.5 21.5736 123.574 11.5 136 11.5H167.5C170.663 11.5 173 13.6212 173 16.5V17.5C173 22.4706 177.029 26.5 182 26.5H232.5C237.471 26.5 241.5 22.4706 241.5 17.5V16.5C241.5 13.6212 243.837 11.5 247 11.5H278.5C290.926 11.5 301 21.5736 301 34V395C301 407.426 290.926 417.5 278.5 417.5H136C123.574 417.5 113.5 407.426 113.5 395V34Z" fill="white"/>
<path fill-rule="evenodd" clip-rule="evenodd" d="M107 33.5C107 17.7599 119.76 5 135.5 5H279.5C295.24 5 308 17.7599 308 33.5V395C308 410.74 295.24 423.5 279.5 423.5H135.5C119.76 423.5 107 410.74 107 395V33.5ZM113.5 34C113.5 21.5736 123.574 11.5 136 11.5H167.5C170.663 11.5 173 13.6212 173 16.5V17.5C173 22.4706 177.029 26.5 182 26.5H232.5C237.471 26.5 241.5 22.4706 241.5 17.5V16.5C241.5 13.6212 243.837 11.5 247 11.5H278.5C290.926 11.5 301 21.5736 301 34V395C301 407.426 290.926 417.5 278.5 417.5H136C123.574 417.5 113.5 407.426 113.5 395V34Z" fill="url(#paint8_linear_402_30)" fill-opacity="0.2"/>
</g>
<path fill-rule="evenodd" clip-rule="evenodd" d="M221.5 21C222.881 21 224 19.8807 224 18.5C224 17.1193 222.881 16 221.5 16C220.119 16 219 17.1193 219 18.5C219 19.8807 220.119 21 221.5 21ZM221.5 22C223.433 22 225 20.433 225 18.5C225 16.567 223.433 15 221.5 15C219.567 15 218 16.567 218 18.5C218 20.433 219.567 22 221.5 22Z" fill="#F2F2F2"/>
<path d="M189.5 18.5C189.5 17.6716 190.172 17 191 17H210C210.828 17 211.5 17.6716 211.5 18.5V18.5C211.5 19.3284 210.828 20 210 20H191C190.172 20 189.5 19.3284 189.5 18.5V18.5Z" fill="#F2F2F2"/>
<defs>
<filter id="filter0_f_402_30" x="0.421265" y="376.579" width="652.904" height="54.4213" filterUnits="userSpaceOnUse" color-interpolation-filters="sRGB">
<feFlood flood-opacity="0" result="BackgroundImageFix"/>
<feBlend mode="normal" in="SourceGraphic" in2="BackgroundImageFix" result="shape"/>
<feGaussianBlur stdDeviation="10" result="effect1_foregroundBlur_402_30"/>
</filter>
<filter id="filter1_f_402_30" x="28.9716" y="385.3" width="588.593" height="26.1632" filterUnits="userSpaceOnUse" color-interpolation-filters="sRGB">
<feFlood flood-opacity="0" result="BackgroundImageFix"/>
<feBlend mode="normal" in="SourceGraphic" in2="BackgroundImageFix" result="shape"/>
<feGaussianBlur stdDeviation="6" result="effect1_foregroundBlur_402_30"/>
</filter>
<filter id="filter2_f_402_30" x="72" y="403.5" width="270.5" height="59" filterUnits="userSpaceOnUse" color-interpolation-filters="sRGB">
<feFlood flood-opacity="0" result="BackgroundImageFix"/>
<feBlend mode="normal" in="SourceGraphic" in2="BackgroundImageFix" result="shape"/>
<feGaussianBlur stdDeviation="10" result="effect1_foregroundBlur_402_30"/>
</filter>
<filter id="filter3_f_402_30" x="101" y="416.5" width="204" height="26" filterUnits="userSpaceOnUse" color-interpolation-filters="sRGB">
<feFlood flood-opacity="0" result="BackgroundImageFix"/>
<feBlend mode="normal" in="SourceGraphic" in2="BackgroundImageFix" result="shape"/>
<feGaussianBlur stdDeviation="6" result="effect1_foregroundBlur_402_30"/>
</filter>
<filter id="filter4_d_402_30" x="105" y="3" width="205" height="422.5" filterUnits="userSpaceOnUse" color-interpolation-filters="sRGB">
<feFlood flood-opacity="0" result="BackgroundImageFix"/>
<feColorMatrix in="SourceAlpha" type="matrix" values="0 0 0 0 0 0 0 0 0 0 0 0 0 0 0 0 0 0 127 0" result="hardAlpha"/>
<feOffset/>
<feGaussianBlur stdDeviation="1"/>
<feColorMatrix type="matrix" values="0 0 0 0 0 0 0 0 0 0 0 0 0 0 0 0 0 0 0.15 0"/>
<feBlend mode="normal" in2="BackgroundImageFix" result="effect1_dropShadow_402_30"/>
<feBlend mode="normal" in="SourceGraphic" in2="effect1_dropShadow_402_30" result="shape"/>
</filter>
<linearGradient id="paint0_linear_402_30" x1="326.873" y1="411" x2="326.873" y2="396.579" gradientUnits="userSpaceOnUse">
<stop stop-color="#D6D6D6" stop-opacity="0"/>
<stop offset="1"/>
</linearGradient>
<linearGradient id="paint1_linear_402_30" x1="334.445" y1="377.11" x2="330.479" y2="32.0816" gradientUnits="userSpaceOnUse">
<stop stop-color="#E1E1E1"/>
<stop offset="1" stop-opacity="0"/>
</linearGradient>
<linearGradient id="paint2_linear_402_30" x1="577.804" y1="46.5029" x2="411.599" y2="233.979" gradientUnits="userSpaceOnUse">
<stop stop-color="white" stop-opacity="0.5"/>
<stop offset="1" stop-color="white" stop-opacity="0"/>
</linearGradient>
<linearGradient id="paint3_linear_402_30" x1="326.873" y1="387.565" x2="326.873" y2="398.021" gradientUnits="userSpaceOnUse">
<stop stop-color="#D6D6D6" stop-opacity="0"/>
<stop offset="1" stop-color="#9E9E9E"/>
</linearGradient>
<linearGradient id="paint4_linear_402_30" x1="6" y1="383.6" x2="647.747" y2="383.601" gradientUnits="userSpaceOnUse">
<stop stop-color="#9E9E9E" stop-opacity="0.55"/>
<stop offset="0.0171348" stop-color="#F6F6F6"/>
<stop offset="0.0337079" stop-color="#9E9E9E" stop-opacity="0.5"/>
<stop offset="0.0955056" stop-color="#9E9E9E" stop-opacity="0.1"/>
<stop offset="0.897191" stop-color="#9E9E9E" stop-opacity="0.1"/>
<stop offset="0.961236" stop-color="#9E9E9E" stop-opacity="0.5"/>
<stop offset="0.976966" stop-color="#F6F6F6" stop-opacity="0.218085"/>
<stop offset="1" stop-color="#9E9E9E" stop-opacity="0.42"/>
</linearGradient>
<linearGradient id="paint5_linear_402_30" x1="282.528" y1="381.436" x2="371.219" y2="381.436" gradientUnits="userSpaceOnUse">
<stop stop-color="#9E9E9E"/>
<stop offset="0.174797" stop-color="#9E9E9E" stop-opacity="0.2"/>
<stop offset="0.841463" stop-color="#9E9E9E" stop-opacity="0.2"/>
<stop offset="1" stop-color="#9E9E9E"/>
</linearGradient>
<linearGradient id="paint6_linear_402_30" x1="207.25" y1="442.5" x2="207.25" y2="423.5" gradientUnits="userSpaceOnUse">
<stop stop-color="#D6D6D6" stop-opacity="0"/>
<stop offset="1"/>
</linearGradient>
<linearGradient id="paint7_linear_402_30" x1="301" y1="11.5" x2="113.5" y2="423.5" gradientUnits="userSpaceOnUse">
<stop stop-color="white"/>
<stop offset="0.291667" stop-color="white" stop-opacity="0"/>
</linearGradient>
<linearGradient id="paint8_linear_402_30" x1="107" y1="423.5" x2="305" y2="9.50002" gradientUnits="userSpaceOnUse">
<stop stop-color="#9E9E9E"/>
<stop offset="1" stop-color="#9E9E9E" stop-opacity="0"/>
</linearGradient>
</defs>
</svg>
